<mxfile host="app.diagrams.net" agent="Mozilla/5.0 (X11; Ubuntu; Linux x86_64; rv:137.0) Gecko/20100101 Firefox/137.0" version="26.2.15">
  <diagram name="Page-1" id="XJ4LuH7A2adHzsDturFl">
    <mxGraphModel dx="806" dy="483" grid="1" gridSize="10" guides="1" tooltips="1" connect="1" arrows="1" fold="1" page="1" pageScale="1" pageWidth="850" pageHeight="1100" math="0" shadow="0">
      <root>
        <mxCell id="0" />
        <mxCell id="1" parent="0" />
        <mxCell id="qc9Q0B2m5h8A3anUrLEf-53" value="None" style="shape=partialRectangle;html=1;whiteSpace=wrap;connectable=0;strokeColor=inherit;overflow=hidden;fillColor=none;top=0;left=0;bottom=0;right=0;pointerEvents=1;rowspan=1;colspan=3;" parent="1" vertex="1">
          <mxGeometry x="240" y="370" width="470" height="40" as="geometry">
            <mxRectangle width="50" height="40" as="alternateBounds" />
          </mxGeometry>
        </mxCell>
        <mxCell id="qc9Q0B2m5h8A3anUrLEf-1" value="" style="shape=table;startSize=0;container=1;collapsible=0;childLayout=tableLayout;" parent="1" vertex="1">
          <mxGeometry x="140" y="90" width="570" height="550" as="geometry" />
        </mxCell>
        <mxCell id="qc9Q0B2m5h8A3anUrLEf-2" value="" style="shape=tableRow;horizontal=0;startSize=0;swimlaneHead=0;swimlaneBody=0;strokeColor=inherit;top=0;left=0;bottom=0;right=0;collapsible=0;dropTarget=0;fillColor=none;points=[[0,0.5],[1,0.5]];portConstraint=eastwest;" parent="qc9Q0B2m5h8A3anUrLEf-1" vertex="1">
          <mxGeometry width="570" height="40" as="geometry" />
        </mxCell>
        <mxCell id="qc9Q0B2m5h8A3anUrLEf-3" value="Use Case ID" style="shape=partialRectangle;html=1;whiteSpace=wrap;connectable=0;strokeColor=inherit;overflow=hidden;fillColor=none;top=0;left=0;bottom=0;right=0;pointerEvents=1;" parent="qc9Q0B2m5h8A3anUrLEf-2" vertex="1">
          <mxGeometry width="100" height="40" as="geometry">
            <mxRectangle width="100" height="40" as="alternateBounds" />
          </mxGeometry>
        </mxCell>
        <mxCell id="qc9Q0B2m5h8A3anUrLEf-4" value="1" style="shape=partialRectangle;html=1;whiteSpace=wrap;connectable=0;strokeColor=inherit;overflow=hidden;fillColor=none;top=0;left=0;bottom=0;right=0;pointerEvents=1;" parent="qc9Q0B2m5h8A3anUrLEf-2" vertex="1">
          <mxGeometry x="100" width="50" height="40" as="geometry">
            <mxRectangle width="50" height="40" as="alternateBounds" />
          </mxGeometry>
        </mxCell>
        <mxCell id="qc9Q0B2m5h8A3anUrLEf-5" value="Use Case name" style="shape=partialRectangle;html=1;whiteSpace=wrap;connectable=0;strokeColor=inherit;overflow=hidden;fillColor=none;top=0;left=0;bottom=0;right=0;pointerEvents=1;" parent="qc9Q0B2m5h8A3anUrLEf-2" vertex="1">
          <mxGeometry x="150" width="100" height="40" as="geometry">
            <mxRectangle width="100" height="40" as="alternateBounds" />
          </mxGeometry>
        </mxCell>
        <mxCell id="qc9Q0B2m5h8A3anUrLEf-6" value="Explore Products" style="shape=partialRectangle;html=1;whiteSpace=wrap;connectable=0;strokeColor=inherit;overflow=hidden;fillColor=none;top=0;left=0;bottom=0;right=0;pointerEvents=1;" parent="qc9Q0B2m5h8A3anUrLEf-2" vertex="1">
          <mxGeometry x="250" width="320" height="40" as="geometry">
            <mxRectangle width="320" height="40" as="alternateBounds" />
          </mxGeometry>
        </mxCell>
        <mxCell id="qc9Q0B2m5h8A3anUrLEf-7" value="" style="shape=tableRow;horizontal=0;startSize=0;swimlaneHead=0;swimlaneBody=0;strokeColor=inherit;top=0;left=0;bottom=0;right=0;collapsible=0;dropTarget=0;fillColor=none;points=[[0,0.5],[1,0.5]];portConstraint=eastwest;" parent="qc9Q0B2m5h8A3anUrLEf-1" vertex="1">
          <mxGeometry y="40" width="570" height="40" as="geometry" />
        </mxCell>
        <mxCell id="qc9Q0B2m5h8A3anUrLEf-8" value="Actor" style="shape=partialRectangle;html=1;whiteSpace=wrap;connectable=0;strokeColor=inherit;overflow=hidden;fillColor=none;top=0;left=0;bottom=0;right=0;pointerEvents=1;" parent="qc9Q0B2m5h8A3anUrLEf-7" vertex="1">
          <mxGeometry width="100" height="40" as="geometry">
            <mxRectangle width="100" height="40" as="alternateBounds" />
          </mxGeometry>
        </mxCell>
        <mxCell id="qc9Q0B2m5h8A3anUrLEf-9" value="Customer" style="shape=partialRectangle;html=1;whiteSpace=wrap;connectable=0;strokeColor=inherit;overflow=hidden;fillColor=none;top=0;left=0;bottom=0;right=0;pointerEvents=1;rowspan=1;colspan=3;" parent="qc9Q0B2m5h8A3anUrLEf-7" vertex="1">
          <mxGeometry x="100" width="470" height="40" as="geometry">
            <mxRectangle width="50" height="40" as="alternateBounds" />
          </mxGeometry>
        </mxCell>
        <mxCell id="qc9Q0B2m5h8A3anUrLEf-10" value="" style="shape=partialRectangle;html=1;whiteSpace=wrap;connectable=0;strokeColor=inherit;overflow=hidden;fillColor=none;top=0;left=0;bottom=0;right=0;pointerEvents=1;" parent="qc9Q0B2m5h8A3anUrLEf-7" vertex="1" visible="0">
          <mxGeometry x="150" width="100" height="40" as="geometry">
            <mxRectangle width="100" height="40" as="alternateBounds" />
          </mxGeometry>
        </mxCell>
        <mxCell id="qc9Q0B2m5h8A3anUrLEf-11" value="" style="shape=partialRectangle;html=1;whiteSpace=wrap;connectable=0;strokeColor=inherit;overflow=hidden;fillColor=none;top=0;left=0;bottom=0;right=0;pointerEvents=1;" parent="qc9Q0B2m5h8A3anUrLEf-7" vertex="1" visible="0">
          <mxGeometry x="250" width="320" height="40" as="geometry">
            <mxRectangle width="320" height="40" as="alternateBounds" />
          </mxGeometry>
        </mxCell>
        <mxCell id="qc9Q0B2m5h8A3anUrLEf-12" value="" style="shape=tableRow;horizontal=0;startSize=0;swimlaneHead=0;swimlaneBody=0;strokeColor=inherit;top=0;left=0;bottom=0;right=0;collapsible=0;dropTarget=0;fillColor=none;points=[[0,0.5],[1,0.5]];portConstraint=eastwest;" parent="qc9Q0B2m5h8A3anUrLEf-1" vertex="1">
          <mxGeometry y="80" width="570" height="40" as="geometry" />
        </mxCell>
        <mxCell id="qc9Q0B2m5h8A3anUrLEf-13" value="Precondition" style="shape=partialRectangle;html=1;whiteSpace=wrap;connectable=0;strokeColor=inherit;overflow=hidden;fillColor=none;top=0;left=0;bottom=0;right=0;pointerEvents=1;" parent="qc9Q0B2m5h8A3anUrLEf-12" vertex="1">
          <mxGeometry width="100" height="40" as="geometry">
            <mxRectangle width="100" height="40" as="alternateBounds" />
          </mxGeometry>
        </mxCell>
        <mxCell id="qc9Q0B2m5h8A3anUrLEf-14" value="None" style="shape=partialRectangle;html=1;whiteSpace=wrap;connectable=0;strokeColor=inherit;overflow=hidden;fillColor=none;top=0;left=0;bottom=0;right=0;pointerEvents=1;rowspan=1;colspan=3;" parent="qc9Q0B2m5h8A3anUrLEf-12" vertex="1">
          <mxGeometry x="100" width="470" height="40" as="geometry">
            <mxRectangle width="50" height="40" as="alternateBounds" />
          </mxGeometry>
        </mxCell>
        <mxCell id="qc9Q0B2m5h8A3anUrLEf-15" value="" style="shape=partialRectangle;html=1;whiteSpace=wrap;connectable=0;strokeColor=inherit;overflow=hidden;fillColor=none;top=0;left=0;bottom=0;right=0;pointerEvents=1;" parent="qc9Q0B2m5h8A3anUrLEf-12" vertex="1" visible="0">
          <mxGeometry x="150" width="100" height="40" as="geometry">
            <mxRectangle width="100" height="40" as="alternateBounds" />
          </mxGeometry>
        </mxCell>
        <mxCell id="qc9Q0B2m5h8A3anUrLEf-16" value="" style="shape=partialRectangle;html=1;whiteSpace=wrap;connectable=0;strokeColor=inherit;overflow=hidden;fillColor=none;top=0;left=0;bottom=0;right=0;pointerEvents=1;" parent="qc9Q0B2m5h8A3anUrLEf-12" vertex="1" visible="0">
          <mxGeometry x="250" width="320" height="40" as="geometry">
            <mxRectangle width="320" height="40" as="alternateBounds" />
          </mxGeometry>
        </mxCell>
        <mxCell id="qc9Q0B2m5h8A3anUrLEf-17" value="" style="shape=tableRow;horizontal=0;startSize=0;swimlaneHead=0;swimlaneBody=0;strokeColor=inherit;top=0;left=0;bottom=0;right=0;collapsible=0;dropTarget=0;fillColor=none;points=[[0,0.5],[1,0.5]];portConstraint=eastwest;" parent="qc9Q0B2m5h8A3anUrLEf-1" vertex="1">
          <mxGeometry y="120" width="570" height="40" as="geometry" />
        </mxCell>
        <mxCell id="qc9Q0B2m5h8A3anUrLEf-18" value="Main Scenario" style="shape=partialRectangle;html=1;whiteSpace=wrap;connectable=0;strokeColor=inherit;overflow=hidden;fillColor=none;top=0;left=0;bottom=0;right=0;pointerEvents=1;rowspan=7;colspan=1;" parent="qc9Q0B2m5h8A3anUrLEf-17" vertex="1">
          <mxGeometry width="100" height="280" as="geometry">
            <mxRectangle width="100" height="40" as="alternateBounds" />
          </mxGeometry>
        </mxCell>
        <mxCell id="qc9Q0B2m5h8A3anUrLEf-19" value="Step" style="shape=partialRectangle;html=1;whiteSpace=wrap;connectable=0;strokeColor=inherit;overflow=hidden;fillColor=none;top=0;left=0;bottom=0;right=0;pointerEvents=1;" parent="qc9Q0B2m5h8A3anUrLEf-17" vertex="1">
          <mxGeometry x="100" width="50" height="40" as="geometry">
            <mxRectangle width="50" height="40" as="alternateBounds" />
          </mxGeometry>
        </mxCell>
        <mxCell id="qc9Q0B2m5h8A3anUrLEf-20" value="Performed by" style="shape=partialRectangle;html=1;whiteSpace=wrap;connectable=0;strokeColor=inherit;overflow=hidden;fillColor=none;top=0;left=0;bottom=0;right=0;pointerEvents=1;" parent="qc9Q0B2m5h8A3anUrLEf-17" vertex="1">
          <mxGeometry x="150" width="100" height="40" as="geometry">
            <mxRectangle width="100" height="40" as="alternateBounds" />
          </mxGeometry>
        </mxCell>
        <mxCell id="qc9Q0B2m5h8A3anUrLEf-21" value="Action" style="shape=partialRectangle;html=1;whiteSpace=wrap;connectable=0;strokeColor=inherit;overflow=hidden;fillColor=none;top=0;left=0;bottom=0;right=0;pointerEvents=1;" parent="qc9Q0B2m5h8A3anUrLEf-17" vertex="1">
          <mxGeometry x="250" width="320" height="40" as="geometry">
            <mxRectangle width="320" height="40" as="alternateBounds" />
          </mxGeometry>
        </mxCell>
        <mxCell id="qc9Q0B2m5h8A3anUrLEf-22" value="" style="shape=tableRow;horizontal=0;startSize=0;swimlaneHead=0;swimlaneBody=0;strokeColor=inherit;top=0;left=0;bottom=0;right=0;collapsible=0;dropTarget=0;fillColor=none;points=[[0,0.5],[1,0.5]];portConstraint=eastwest;" parent="qc9Q0B2m5h8A3anUrLEf-1" vertex="1">
          <mxGeometry y="160" width="570" height="40" as="geometry" />
        </mxCell>
        <mxCell id="qc9Q0B2m5h8A3anUrLEf-23" value="" style="shape=partialRectangle;html=1;whiteSpace=wrap;connectable=0;strokeColor=inherit;overflow=hidden;fillColor=none;top=0;left=0;bottom=0;right=0;pointerEvents=1;" parent="qc9Q0B2m5h8A3anUrLEf-22" vertex="1" visible="0">
          <mxGeometry width="100" height="40" as="geometry">
            <mxRectangle width="100" height="40" as="alternateBounds" />
          </mxGeometry>
        </mxCell>
        <mxCell id="qc9Q0B2m5h8A3anUrLEf-24" value="1" style="shape=partialRectangle;html=1;whiteSpace=wrap;connectable=0;strokeColor=inherit;overflow=hidden;fillColor=none;top=0;left=0;bottom=0;right=0;pointerEvents=1;" parent="qc9Q0B2m5h8A3anUrLEf-22" vertex="1">
          <mxGeometry x="100" width="50" height="40" as="geometry">
            <mxRectangle width="50" height="40" as="alternateBounds" />
          </mxGeometry>
        </mxCell>
        <mxCell id="qc9Q0B2m5h8A3anUrLEf-25" value="Customer" style="shape=partialRectangle;html=1;whiteSpace=wrap;connectable=0;strokeColor=inherit;overflow=hidden;fillColor=none;top=0;left=0;bottom=0;right=0;pointerEvents=1;" parent="qc9Q0B2m5h8A3anUrLEf-22" vertex="1">
          <mxGeometry x="150" width="100" height="40" as="geometry">
            <mxRectangle width="100" height="40" as="alternateBounds" />
          </mxGeometry>
        </mxCell>
        <mxCell id="qc9Q0B2m5h8A3anUrLEf-26" value="Scrolls the homepage to browse available products." style="shape=partialRectangle;html=1;whiteSpace=wrap;connectable=0;strokeColor=inherit;overflow=hidden;fillColor=none;top=0;left=0;bottom=0;right=0;pointerEvents=1;" parent="qc9Q0B2m5h8A3anUrLEf-22" vertex="1">
          <mxGeometry x="250" width="320" height="40" as="geometry">
            <mxRectangle width="320" height="40" as="alternateBounds" />
          </mxGeometry>
        </mxCell>
        <mxCell id="0q1HO9-gAJCns06K1bvI-16" style="shape=tableRow;horizontal=0;startSize=0;swimlaneHead=0;swimlaneBody=0;strokeColor=inherit;top=0;left=0;bottom=0;right=0;collapsible=0;dropTarget=0;fillColor=none;points=[[0,0.5],[1,0.5]];portConstraint=eastwest;" parent="qc9Q0B2m5h8A3anUrLEf-1" vertex="1">
          <mxGeometry y="200" width="570" height="40" as="geometry" />
        </mxCell>
        <mxCell id="0q1HO9-gAJCns06K1bvI-17" style="shape=partialRectangle;html=1;whiteSpace=wrap;connectable=0;strokeColor=inherit;overflow=hidden;fillColor=none;top=0;left=0;bottom=0;right=0;pointerEvents=1;" parent="0q1HO9-gAJCns06K1bvI-16" visible="0" vertex="1">
          <mxGeometry width="100" height="40" as="geometry">
            <mxRectangle width="100" height="40" as="alternateBounds" />
          </mxGeometry>
        </mxCell>
        <mxCell id="0q1HO9-gAJCns06K1bvI-18" value="2" style="shape=partialRectangle;html=1;whiteSpace=wrap;connectable=0;strokeColor=inherit;overflow=hidden;fillColor=none;top=0;left=0;bottom=0;right=0;pointerEvents=1;" parent="0q1HO9-gAJCns06K1bvI-16" vertex="1">
          <mxGeometry x="100" width="50" height="40" as="geometry">
            <mxRectangle width="50" height="40" as="alternateBounds" />
          </mxGeometry>
        </mxCell>
        <mxCell id="0q1HO9-gAJCns06K1bvI-19" value="System" style="shape=partialRectangle;html=1;whiteSpace=wrap;connectable=0;strokeColor=inherit;overflow=hidden;fillColor=none;top=0;left=0;bottom=0;right=0;pointerEvents=1;" parent="0q1HO9-gAJCns06K1bvI-16" vertex="1">
          <mxGeometry x="150" width="100" height="40" as="geometry">
            <mxRectangle width="100" height="40" as="alternateBounds" />
          </mxGeometry>
        </mxCell>
        <mxCell id="0q1HO9-gAJCns06K1bvI-20" value="Displays products dynamically as the customer scrolls." style="shape=partialRectangle;html=1;whiteSpace=wrap;connectable=0;strokeColor=inherit;overflow=hidden;fillColor=none;top=0;left=0;bottom=0;right=0;pointerEvents=1;" parent="0q1HO9-gAJCns06K1bvI-16" vertex="1">
          <mxGeometry x="250" width="320" height="40" as="geometry">
            <mxRectangle width="320" height="40" as="alternateBounds" />
          </mxGeometry>
        </mxCell>
        <mxCell id="0q1HO9-gAJCns06K1bvI-11" style="shape=tableRow;horizontal=0;startSize=0;swimlaneHead=0;swimlaneBody=0;strokeColor=inherit;top=0;left=0;bottom=0;right=0;collapsible=0;dropTarget=0;fillColor=none;points=[[0,0.5],[1,0.5]];portConstraint=eastwest;" parent="qc9Q0B2m5h8A3anUrLEf-1" vertex="1">
          <mxGeometry y="240" width="570" height="40" as="geometry" />
        </mxCell>
        <mxCell id="0q1HO9-gAJCns06K1bvI-12" style="shape=partialRectangle;html=1;whiteSpace=wrap;connectable=0;strokeColor=inherit;overflow=hidden;fillColor=none;top=0;left=0;bottom=0;right=0;pointerEvents=1;" parent="0q1HO9-gAJCns06K1bvI-11" visible="0" vertex="1">
          <mxGeometry width="100" height="40" as="geometry">
            <mxRectangle width="100" height="40" as="alternateBounds" />
          </mxGeometry>
        </mxCell>
        <mxCell id="0q1HO9-gAJCns06K1bvI-13" style="shape=partialRectangle;html=1;whiteSpace=wrap;connectable=0;strokeColor=inherit;overflow=hidden;fillColor=none;top=0;left=0;bottom=0;right=0;pointerEvents=1;" parent="0q1HO9-gAJCns06K1bvI-11" vertex="1">
          <mxGeometry x="100" width="50" height="40" as="geometry">
            <mxRectangle width="50" height="40" as="alternateBounds" />
          </mxGeometry>
        </mxCell>
        <mxCell id="0q1HO9-gAJCns06K1bvI-14" style="shape=partialRectangle;html=1;whiteSpace=wrap;connectable=0;strokeColor=inherit;overflow=hidden;fillColor=none;top=0;left=0;bottom=0;right=0;pointerEvents=1;" parent="0q1HO9-gAJCns06K1bvI-11" vertex="1">
          <mxGeometry x="150" width="100" height="40" as="geometry">
            <mxRectangle width="100" height="40" as="alternateBounds" />
          </mxGeometry>
        </mxCell>
        <mxCell id="0q1HO9-gAJCns06K1bvI-15" style="shape=partialRectangle;html=1;whiteSpace=wrap;connectable=0;strokeColor=inherit;overflow=hidden;fillColor=none;top=0;left=0;bottom=0;right=0;pointerEvents=1;" parent="0q1HO9-gAJCns06K1bvI-11" vertex="1">
          <mxGeometry x="250" width="320" height="40" as="geometry">
            <mxRectangle width="320" height="40" as="alternateBounds" />
          </mxGeometry>
        </mxCell>
        <mxCell id="qc9Q0B2m5h8A3anUrLEf-27" value="" style="shape=tableRow;horizontal=0;startSize=0;swimlaneHead=0;swimlaneBody=0;strokeColor=inherit;top=0;left=0;bottom=0;right=0;collapsible=0;dropTarget=0;fillColor=none;points=[[0,0.5],[1,0.5]];portConstraint=eastwest;" parent="qc9Q0B2m5h8A3anUrLEf-1" vertex="1">
          <mxGeometry y="280" width="570" height="40" as="geometry" />
        </mxCell>
        <mxCell id="qc9Q0B2m5h8A3anUrLEf-28" value="" style="shape=partialRectangle;html=1;whiteSpace=wrap;connectable=0;strokeColor=inherit;overflow=hidden;fillColor=none;top=0;left=0;bottom=0;right=0;pointerEvents=1;" parent="qc9Q0B2m5h8A3anUrLEf-27" vertex="1" visible="0">
          <mxGeometry width="100" height="40" as="geometry">
            <mxRectangle width="100" height="40" as="alternateBounds" />
          </mxGeometry>
        </mxCell>
        <mxCell id="qc9Q0B2m5h8A3anUrLEf-29" value="4" style="shape=partialRectangle;html=1;whiteSpace=wrap;connectable=0;strokeColor=inherit;overflow=hidden;fillColor=none;top=0;left=0;bottom=0;right=0;pointerEvents=1;" parent="qc9Q0B2m5h8A3anUrLEf-27" vertex="1">
          <mxGeometry x="100" width="50" height="40" as="geometry">
            <mxRectangle width="50" height="40" as="alternateBounds" />
          </mxGeometry>
        </mxCell>
        <mxCell id="qc9Q0B2m5h8A3anUrLEf-30" value="System" style="shape=partialRectangle;html=1;whiteSpace=wrap;connectable=0;strokeColor=inherit;overflow=hidden;fillColor=none;top=0;left=0;bottom=0;right=0;pointerEvents=1;" parent="qc9Q0B2m5h8A3anUrLEf-27" vertex="1">
          <mxGeometry x="150" width="100" height="40" as="geometry">
            <mxRectangle width="100" height="40" as="alternateBounds" />
          </mxGeometry>
        </mxCell>
        <mxCell id="qc9Q0B2m5h8A3anUrLEf-31" value="Navigates to the &quot;All Products&quot; page with paginated products." style="shape=partialRectangle;html=1;whiteSpace=wrap;connectable=0;strokeColor=inherit;overflow=hidden;fillColor=none;top=0;left=0;bottom=0;right=0;pointerEvents=1;" parent="qc9Q0B2m5h8A3anUrLEf-27" vertex="1">
          <mxGeometry x="250" width="320" height="40" as="geometry">
            <mxRectangle width="320" height="40" as="alternateBounds" />
          </mxGeometry>
        </mxCell>
        <mxCell id="0q1HO9-gAJCns06K1bvI-6" style="shape=tableRow;horizontal=0;startSize=0;swimlaneHead=0;swimlaneBody=0;strokeColor=inherit;top=0;left=0;bottom=0;right=0;collapsible=0;dropTarget=0;fillColor=none;points=[[0,0.5],[1,0.5]];portConstraint=eastwest;" parent="qc9Q0B2m5h8A3anUrLEf-1" vertex="1">
          <mxGeometry y="320" width="570" height="40" as="geometry" />
        </mxCell>
        <mxCell id="0q1HO9-gAJCns06K1bvI-7" value="" style="shape=partialRectangle;html=1;whiteSpace=wrap;connectable=0;strokeColor=inherit;overflow=hidden;fillColor=none;top=0;left=0;bottom=0;right=0;pointerEvents=1;" parent="0q1HO9-gAJCns06K1bvI-6" visible="0" vertex="1">
          <mxGeometry width="100" height="40" as="geometry">
            <mxRectangle width="100" height="40" as="alternateBounds" />
          </mxGeometry>
        </mxCell>
        <mxCell id="0q1HO9-gAJCns06K1bvI-8" value="5" style="shape=partialRectangle;html=1;whiteSpace=wrap;connectable=0;strokeColor=inherit;overflow=hidden;fillColor=none;top=0;left=0;bottom=0;right=0;pointerEvents=1;" parent="0q1HO9-gAJCns06K1bvI-6" vertex="1">
          <mxGeometry x="100" width="50" height="40" as="geometry">
            <mxRectangle width="50" height="40" as="alternateBounds" />
          </mxGeometry>
        </mxCell>
        <mxCell id="0q1HO9-gAJCns06K1bvI-9" value="Customer" style="shape=partialRectangle;html=1;whiteSpace=wrap;connectable=0;strokeColor=inherit;overflow=hidden;fillColor=none;top=0;left=0;bottom=0;right=0;pointerEvents=1;" parent="0q1HO9-gAJCns06K1bvI-6" vertex="1">
          <mxGeometry x="150" width="100" height="40" as="geometry">
            <mxRectangle width="100" height="40" as="alternateBounds" />
          </mxGeometry>
        </mxCell>
        <mxCell id="0q1HO9-gAJCns06K1bvI-10" value="Uses pagination (next/previous) to browse additional products." style="shape=partialRectangle;html=1;whiteSpace=wrap;connectable=0;strokeColor=inherit;overflow=hidden;fillColor=none;top=0;left=0;bottom=0;right=0;pointerEvents=1;" parent="0q1HO9-gAJCns06K1bvI-6" vertex="1">
          <mxGeometry x="250" width="320" height="40" as="geometry">
            <mxRectangle width="320" height="40" as="alternateBounds" />
          </mxGeometry>
        </mxCell>
        <mxCell id="0q1HO9-gAJCns06K1bvI-1" style="shape=tableRow;horizontal=0;startSize=0;swimlaneHead=0;swimlaneBody=0;strokeColor=inherit;top=0;left=0;bottom=0;right=0;collapsible=0;dropTarget=0;fillColor=none;points=[[0,0.5],[1,0.5]];portConstraint=eastwest;" parent="qc9Q0B2m5h8A3anUrLEf-1" vertex="1">
          <mxGeometry y="360" width="570" height="40" as="geometry" />
        </mxCell>
        <mxCell id="0q1HO9-gAJCns06K1bvI-2" value="" style="shape=partialRectangle;html=1;whiteSpace=wrap;connectable=0;strokeColor=inherit;overflow=hidden;fillColor=none;top=0;left=0;bottom=0;right=0;pointerEvents=1;" parent="0q1HO9-gAJCns06K1bvI-1" visible="0" vertex="1">
          <mxGeometry width="100" height="40" as="geometry">
            <mxRectangle width="100" height="40" as="alternateBounds" />
          </mxGeometry>
        </mxCell>
        <mxCell id="0q1HO9-gAJCns06K1bvI-3" value="6" style="shape=partialRectangle;html=1;whiteSpace=wrap;connectable=0;strokeColor=inherit;overflow=hidden;fillColor=none;top=0;left=0;bottom=0;right=0;pointerEvents=1;" parent="0q1HO9-gAJCns06K1bvI-1" vertex="1">
          <mxGeometry x="100" width="50" height="40" as="geometry">
            <mxRectangle width="50" height="40" as="alternateBounds" />
          </mxGeometry>
        </mxCell>
        <mxCell id="0q1HO9-gAJCns06K1bvI-4" value="System" style="shape=partialRectangle;html=1;whiteSpace=wrap;connectable=0;strokeColor=inherit;overflow=hidden;fillColor=none;top=0;left=0;bottom=0;right=0;pointerEvents=1;" parent="0q1HO9-gAJCns06K1bvI-1" vertex="1">
          <mxGeometry x="150" width="100" height="40" as="geometry">
            <mxRectangle width="100" height="40" as="alternateBounds" />
          </mxGeometry>
        </mxCell>
        <mxCell id="0q1HO9-gAJCns06K1bvI-5" value="Loads the corresponding product list page dynamically." style="shape=partialRectangle;html=1;whiteSpace=wrap;connectable=0;strokeColor=inherit;overflow=hidden;fillColor=none;top=0;left=0;bottom=0;right=0;pointerEvents=1;" parent="0q1HO9-gAJCns06K1bvI-1" vertex="1">
          <mxGeometry x="250" width="320" height="40" as="geometry">
            <mxRectangle width="320" height="40" as="alternateBounds" />
          </mxGeometry>
        </mxCell>
        <mxCell id="qc9Q0B2m5h8A3anUrLEf-32" value="" style="shape=tableRow;horizontal=0;startSize=0;swimlaneHead=0;swimlaneBody=0;strokeColor=inherit;top=0;left=0;bottom=0;right=0;collapsible=0;dropTarget=0;fillColor=none;points=[[0,0.5],[1,0.5]];portConstraint=eastwest;" parent="qc9Q0B2m5h8A3anUrLEf-1" vertex="1">
          <mxGeometry y="400" width="570" height="40" as="geometry" />
        </mxCell>
        <mxCell id="qc9Q0B2m5h8A3anUrLEf-33" value="" style="shape=partialRectangle;html=1;whiteSpace=wrap;connectable=0;strokeColor=inherit;overflow=hidden;fillColor=none;top=0;left=0;bottom=0;right=0;pointerEvents=1;rowspan=2;colspan=1;" parent="qc9Q0B2m5h8A3anUrLEf-32" vertex="1">
          <mxGeometry width="100" height="80" as="geometry">
            <mxRectangle width="100" height="40" as="alternateBounds" />
          </mxGeometry>
        </mxCell>
        <mxCell id="qc9Q0B2m5h8A3anUrLEf-34" value="2a" style="shape=partialRectangle;html=1;whiteSpace=wrap;connectable=0;strokeColor=inherit;overflow=hidden;fillColor=none;top=0;left=0;bottom=0;right=0;pointerEvents=1;" parent="qc9Q0B2m5h8A3anUrLEf-32" vertex="1">
          <mxGeometry x="100" width="50" height="40" as="geometry">
            <mxRectangle width="50" height="40" as="alternateBounds" />
          </mxGeometry>
        </mxCell>
        <mxCell id="qc9Q0B2m5h8A3anUrLEf-35" value="System" style="shape=partialRectangle;html=1;whiteSpace=wrap;connectable=0;strokeColor=inherit;overflow=hidden;fillColor=none;top=0;left=0;bottom=0;right=0;pointerEvents=1;" parent="qc9Q0B2m5h8A3anUrLEf-32" vertex="1">
          <mxGeometry x="150" width="100" height="40" as="geometry">
            <mxRectangle width="100" height="40" as="alternateBounds" />
          </mxGeometry>
        </mxCell>
        <mxCell id="qc9Q0B2m5h8A3anUrLEf-36" value="If no products are available, show &quot;No Products Available&quot; message." style="shape=partialRectangle;html=1;whiteSpace=wrap;connectable=0;strokeColor=inherit;overflow=hidden;fillColor=none;top=0;left=0;bottom=0;right=0;pointerEvents=1;" parent="qc9Q0B2m5h8A3anUrLEf-32" vertex="1">
          <mxGeometry x="250" width="320" height="40" as="geometry">
            <mxRectangle width="320" height="40" as="alternateBounds" />
          </mxGeometry>
        </mxCell>
        <mxCell id="0q1HO9-gAJCns06K1bvI-32" style="shape=tableRow;horizontal=0;startSize=0;swimlaneHead=0;swimlaneBody=0;strokeColor=inherit;top=0;left=0;bottom=0;right=0;collapsible=0;dropTarget=0;fillColor=none;points=[[0,0.5],[1,0.5]];portConstraint=eastwest;" parent="qc9Q0B2m5h8A3anUrLEf-1" vertex="1">
          <mxGeometry y="440" width="570" height="40" as="geometry" />
        </mxCell>
        <mxCell id="0q1HO9-gAJCns06K1bvI-33" value="" style="shape=partialRectangle;html=1;whiteSpace=wrap;connectable=0;strokeColor=inherit;overflow=hidden;fillColor=none;top=0;left=0;bottom=0;right=0;pointerEvents=1;" parent="0q1HO9-gAJCns06K1bvI-32" visible="0" vertex="1">
          <mxGeometry width="100" height="40" as="geometry">
            <mxRectangle width="100" height="40" as="alternateBounds" />
          </mxGeometry>
        </mxCell>
        <mxCell id="0q1HO9-gAJCns06K1bvI-34" value="5a" style="shape=partialRectangle;html=1;whiteSpace=wrap;connectable=0;strokeColor=inherit;overflow=hidden;fillColor=none;top=0;left=0;bottom=0;right=0;pointerEvents=1;" parent="0q1HO9-gAJCns06K1bvI-32" vertex="1">
          <mxGeometry x="100" width="50" height="40" as="geometry">
            <mxRectangle width="50" height="40" as="alternateBounds" />
          </mxGeometry>
        </mxCell>
        <mxCell id="0q1HO9-gAJCns06K1bvI-35" value="System" style="shape=partialRectangle;html=1;whiteSpace=wrap;connectable=0;strokeColor=inherit;overflow=hidden;fillColor=none;top=0;left=0;bottom=0;right=0;pointerEvents=1;" parent="0q1HO9-gAJCns06K1bvI-32" vertex="1">
          <mxGeometry x="150" width="100" height="40" as="geometry">
            <mxRectangle width="100" height="40" as="alternateBounds" />
          </mxGeometry>
        </mxCell>
        <mxCell id="0q1HO9-gAJCns06K1bvI-36" value="If pagination fails, show error and allow retry." style="shape=partialRectangle;html=1;whiteSpace=wrap;connectable=0;strokeColor=inherit;overflow=hidden;fillColor=none;top=0;left=0;bottom=0;right=0;pointerEvents=1;" parent="0q1HO9-gAJCns06K1bvI-32" vertex="1">
          <mxGeometry x="250" width="320" height="40" as="geometry">
            <mxRectangle width="320" height="40" as="alternateBounds" />
          </mxGeometry>
        </mxCell>
        <mxCell id="0q1HO9-gAJCns06K1bvI-27" style="shape=tableRow;horizontal=0;startSize=0;swimlaneHead=0;swimlaneBody=0;strokeColor=inherit;top=0;left=0;bottom=0;right=0;collapsible=0;dropTarget=0;fillColor=none;points=[[0,0.5],[1,0.5]];portConstraint=eastwest;" parent="qc9Q0B2m5h8A3anUrLEf-1" vertex="1">
          <mxGeometry y="480" width="570" height="70" as="geometry" />
        </mxCell>
        <mxCell id="0q1HO9-gAJCns06K1bvI-28" value="" style="shape=partialRectangle;html=1;whiteSpace=wrap;connectable=0;strokeColor=inherit;overflow=hidden;fillColor=none;top=0;left=0;bottom=0;right=0;pointerEvents=1;" parent="0q1HO9-gAJCns06K1bvI-27" vertex="1">
          <mxGeometry width="100" height="70" as="geometry">
            <mxRectangle width="100" height="70" as="alternateBounds" />
          </mxGeometry>
        </mxCell>
        <mxCell id="0q1HO9-gAJCns06K1bvI-29" value="" style="shape=partialRectangle;html=1;whiteSpace=wrap;connectable=0;strokeColor=inherit;overflow=hidden;fillColor=none;top=0;left=0;bottom=0;right=0;pointerEvents=1;rowspan=1;colspan=3;" parent="0q1HO9-gAJCns06K1bvI-27" vertex="1">
          <mxGeometry x="100" width="470" height="70" as="geometry">
            <mxRectangle width="50" height="70" as="alternateBounds" />
          </mxGeometry>
        </mxCell>
        <mxCell id="0q1HO9-gAJCns06K1bvI-30" value="" style="shape=partialRectangle;html=1;whiteSpace=wrap;connectable=0;strokeColor=inherit;overflow=hidden;fillColor=none;top=0;left=0;bottom=0;right=0;pointerEvents=1;" parent="0q1HO9-gAJCns06K1bvI-27" vertex="1" visible="0">
          <mxGeometry x="150" width="100" height="70" as="geometry">
            <mxRectangle width="100" height="70" as="alternateBounds" />
          </mxGeometry>
        </mxCell>
        <mxCell id="0q1HO9-gAJCns06K1bvI-31" value="" style="shape=partialRectangle;html=1;whiteSpace=wrap;connectable=0;strokeColor=inherit;overflow=hidden;fillColor=none;top=0;left=0;bottom=0;right=0;pointerEvents=1;" parent="0q1HO9-gAJCns06K1bvI-27" vertex="1" visible="0">
          <mxGeometry x="250" width="320" height="70" as="geometry">
            <mxRectangle width="320" height="70" as="alternateBounds" />
          </mxGeometry>
        </mxCell>
        <mxCell id="qc9Q0B2m5h8A3anUrLEf-50" value="3" style="shape=partialRectangle;html=1;whiteSpace=wrap;connectable=0;strokeColor=inherit;overflow=hidden;fillColor=none;top=0;left=0;bottom=0;right=0;pointerEvents=1;" parent="1" vertex="1">
          <mxGeometry x="240" y="330" width="50" height="40" as="geometry">
            <mxRectangle width="50" height="40" as="alternateBounds" />
          </mxGeometry>
        </mxCell>
        <mxCell id="qc9Q0B2m5h8A3anUrLEf-51" value="Customer" style="shape=partialRectangle;html=1;whiteSpace=wrap;connectable=0;strokeColor=inherit;overflow=hidden;fillColor=none;top=0;left=0;bottom=0;right=0;pointerEvents=1;" parent="1" vertex="1">
          <mxGeometry x="290" y="330" width="100" height="40" as="geometry">
            <mxRectangle width="100" height="40" as="alternateBounds" />
          </mxGeometry>
        </mxCell>
        <mxCell id="qc9Q0B2m5h8A3anUrLEf-52" value="Clicks the &quot;See All Products&quot; link to view the full products page." style="shape=partialRectangle;html=1;whiteSpace=wrap;connectable=0;strokeColor=inherit;overflow=hidden;fillColor=none;top=0;left=0;bottom=0;right=0;pointerEvents=1;" parent="1" vertex="1">
          <mxGeometry x="390" y="330" width="320" height="40" as="geometry">
            <mxRectangle width="320" height="40" as="alternateBounds" />
          </mxGeometry>
        </mxCell>
        <mxCell id="pszcPgxry1Be5XG4JA08-32" value="Postcondition" style="shape=partialRectangle;html=1;whiteSpace=wrap;connectable=0;strokeColor=inherit;overflow=hidden;fillColor=none;top=0;left=0;bottom=0;right=0;pointerEvents=1;" parent="1" vertex="1">
          <mxGeometry x="140" y="580" width="100" height="40" as="geometry">
            <mxRectangle width="100" height="40" as="alternateBounds" />
          </mxGeometry>
        </mxCell>
        <mxCell id="pszcPgxry1Be5XG4JA08-33" value="&lt;span data-end=&quot;375&quot; data-start=&quot;229&quot;&gt;The customer has successfully browsed available products, either through scrolling on the homepage or navigating to the full products listing.&lt;/span&gt;" style="shape=partialRectangle;html=1;whiteSpace=wrap;connectable=0;strokeColor=inherit;overflow=hidden;fillColor=none;top=0;left=0;bottom=0;right=0;pointerEvents=1;rowspan=1;colspan=3;" parent="1" vertex="1">
          <mxGeometry x="240" y="590" width="470" height="40" as="geometry">
            <mxRectangle width="50" height="40" as="alternateBounds" />
          </mxGeometry>
        </mxCell>
        <mxCell id="pszcPgxry1Be5XG4JA08-34" value="Alternative Flows" style="shape=partialRectangle;html=1;whiteSpace=wrap;connectable=0;strokeColor=inherit;overflow=hidden;fillColor=none;top=0;left=0;bottom=0;right=0;pointerEvents=1;" parent="1" vertex="1">
          <mxGeometry x="140" y="510" width="100" height="40" as="geometry">
            <mxRectangle width="100" height="40" as="alternateBounds" />
          </mxGeometry>
        </mxCell>
      </root>
    </mxGraphModel>
  </diagram>
</mxfile>
